<svg width="198" height="62" viewBox="0 0 198 62" fill="none" xmlns="http://www.w3.org/2000/svg">
<path d="M46.7844 22.7936C44.2123 20.2206 40.9717 18.8105 37.6513 18.8105C34.1492 18.8105 30.9086 20.1189 28.5327 22.4956C28.3656 22.6555 28.2639 22.859 28.1113 23.0262C29.0268 22.7427 30.0077 22.5901 31.0757 22.5901C38.8864 22.5901 45.244 29.357 45.244 37.672C45.244 41.6841 43.5583 45.58 40.4995 48.6472C36.6413 52.5068 30.9377 54.7236 24.8707 54.7236C20.2788 54.7236 13.1801 52.8338 7.02596 47.5425C6.32845 46.9392 5.43476 46.6048 4.512 46.6048C2.39039 46.6048 0.661133 48.3347 0.661133 50.4571C0.661133 51.4746 1.05349 52.4341 1.7728 53.1682C2.39039 53.7933 3.1097 54.3457 3.79995 54.8835C11.7923 61.0398 20.8164 61.5195 23.3958 61.5195C32.1874 61.5195 39.5622 58.7866 44.7209 53.6188C50.1557 48.1821 52.0884 41.2626 52.0884 36.6035C52.0884 31.2104 50.1557 26.1807 46.7771 22.8009" fill="#B20838"/>
<path d="M61.4829 38.1081C61.4829 29.3206 58.751 21.9432 53.585 16.7754C48.1502 11.3387 41.2404 9.40527 36.583 9.40527C31.1918 9.40527 26.1639 11.3459 22.7853 14.7185C20.2132 17.2915 18.7964 20.5332 18.7964 23.8475C18.7964 27.3509 20.1042 30.5926 22.4801 32.9694C22.64 33.1293 22.8434 33.2383 23.0178 33.3909C22.7344 32.4751 22.5819 31.4939 22.5819 30.4254C22.5819 22.6119 29.3463 16.2521 37.6584 16.2521C41.6691 16.2521 45.5636 17.9384 48.6224 20.9983C52.4806 24.8578 54.6966 30.5563 54.6966 36.6326C54.6966 41.2262 52.8075 48.3274 47.518 54.4838C46.915 55.1815 46.5808 56.0828 46.5808 56.9986C46.5808 59.121 48.31 60.8509 50.4316 60.8509C51.4488 60.8509 52.4079 60.4584 53.1418 59.7388C53.7448 59.1428 54.2752 58.4668 54.8565 57.7109C61.0106 49.7157 61.4902 40.6884 61.4902 38.1081" fill="#B20838"/>
<path d="M14.6989 38.7187C17.271 41.2917 20.5116 42.7017 23.8248 42.7017C27.3341 42.7017 30.5674 41.3934 32.9433 39.0167C33.1032 38.8568 33.2122 38.6532 33.3647 38.4861C32.4492 38.7623 31.4684 38.9222 30.4003 38.9222C22.5896 38.9222 16.2393 32.1553 16.2393 23.8403C16.2393 19.8281 17.9249 15.9323 20.9838 12.8723C24.842 9.01279 30.5383 6.79594 36.6125 6.79594C41.2045 6.79594 48.3032 8.68571 54.4501 13.9771C55.1548 14.5804 56.0485 14.9147 56.964 14.9147C59.0856 14.9147 60.8149 13.1848 60.8149 11.0625C60.8149 10.0449 60.4225 9.08547 59.7032 8.35137C59.0784 7.71902 58.3372 7.14482 57.6761 6.63603C49.6837 0.479713 40.6596 0 38.0802 0C29.2959 0 21.9139 2.73291 16.7479 7.90073C11.3131 13.3375 9.38037 20.2497 9.38037 24.916C9.38037 30.3091 11.3131 35.3389 14.6917 38.7187" fill="#B20838"/>
<path d="M0 23.4112C0 32.1987 2.73194 39.5761 7.89791 44.7512C13.3327 50.1879 20.2425 52.1213 24.9071 52.1213C30.2983 52.1213 35.3263 50.1879 38.7049 46.8081C41.2769 44.2351 42.6865 40.9934 42.6865 37.6718C42.6865 34.1684 41.3787 30.9267 39.0028 28.55C38.8356 28.3901 38.6395 28.281 38.4651 28.1284C38.7485 29.0442 38.901 30.0254 38.901 31.0939C38.901 38.9074 32.1366 45.2672 23.8245 45.2672C19.8138 45.2672 15.9193 43.581 12.8604 40.521C9.00231 36.6615 6.78625 30.9631 6.78625 24.8867C6.78625 20.2931 8.67535 13.1919 13.9648 7.03556C14.5679 6.33053 14.9021 5.43651 14.9021 4.5207C14.9021 2.39833 13.1729 0.668457 11.0513 0.668457C10.0486 0.668457 9.06044 1.07549 8.34113 1.78052C7.74533 2.36199 7.23673 3.01614 6.6264 3.8084C0.479542 11.8036 0 20.8309 0 23.4112Z" fill="#B20838"/>
<path d="M78.7103 10.2046C79.4732 13.1338 80.9409 17.1096 81.9654 19.0066L82.0235 19.1011H80.4395L78.9428 15.0381H75.7168L74.874 16.9061C74.874 16.9061 74.8594 16.9351 74.8449 16.9788C74.5833 17.5166 74.3871 18.2144 74.3871 18.6432C74.3871 18.7959 74.4017 18.8758 74.4671 19.043C74.0529 19.0139 73.5661 18.9994 73.0502 18.9994C72.9267 18.9994 72.8395 18.9994 72.6797 19.0139C73.6388 17.8655 73.8567 17.5021 75.23 14.6456C76.2036 12.6323 76.9738 10.6916 76.9738 10.2919C76.9738 10.1538 76.9447 10.0665 76.8502 9.89209H77.0028L77.8457 9.9357L78.5795 9.90663L78.6376 9.92116L78.7103 10.1974V10.2046ZM76.0074 14.4058H78.7103L77.5623 11.026L76.0074 14.4058Z" fill="black"/>
<path d="M93.0895 10.7135C93.0314 11.9055 92.9951 13.3592 92.9951 14.2605C92.9951 17.2987 93.1331 18.4616 93.5763 19.0431H91.4111C91.6218 18.8323 91.6727 18.7233 91.6872 18.4325C91.7308 17.9746 91.7453 17.1969 91.7453 16.1067V15.5906L91.7308 13.1775L91.6872 11.4331L91.7163 11.2005V11.106L91.6291 11.3023L90.1178 14.7983C89.1587 17.0007 88.5266 18.418 88.236 19.0285C88.2214 19.0431 88.1778 19.1012 88.1124 19.2539L87.9889 18.9341C87.2987 17.0515 86.8409 15.7868 86.6157 15.1618C85.94 13.2793 85.4822 12.0146 85.2279 11.3895L85.148 11.1932C85.148 11.2659 85.1335 11.3168 85.1335 11.3313L85.148 11.593C85.148 11.6657 85.1335 11.8401 85.1189 12.1308C85.0899 12.4361 85.0753 12.6324 85.0608 12.7123V12.7995L84.7992 16.6372V16.819L84.7556 17.8583V17.9964C84.7556 18.5634 84.8283 18.8032 85.0608 19.0503H83.4551C83.6803 18.7305 83.7602 18.5343 83.8329 18.2145C84.1671 16.7971 84.4432 13.2938 84.4432 10.7135C84.4432 10.2992 84.3851 10.1611 84.1381 9.87038L85.8019 9.84131H85.8165C85.94 9.84131 86.0635 9.85585 86.1216 9.89946C86.1652 9.94307 86.1943 9.97941 86.2161 10.0376C86.2161 10.0666 86.2597 10.1611 86.3105 10.3428L86.3541 10.4373L88.5339 16.9425L91.3167 10.4664L91.3603 10.3864C91.5128 9.98668 91.5782 9.92853 91.8325 9.91399H91.9996L93.293 9.87038C93.1404 10.132 93.1113 10.2483 93.0968 10.7135" fill="black"/>
<path d="M95.2472 9.84125C95.3853 9.84125 95.5233 9.85579 95.7704 9.85579C95.9956 9.87033 96.1482 9.87033 96.2572 9.87033H96.3807L100.246 9.88486L100.326 11.1859C99.9918 10.5317 99.7738 10.4373 98.4151 10.4082L96.9474 10.3646H96.8748L96.7077 13.8316H96.8021L97.8556 13.8607L100.159 13.8025L100.297 13.788C99.7448 14.3695 99.0327 14.5657 97.427 14.5657C97.0637 14.5657 96.9692 14.5657 96.6786 14.5512L96.635 18.447H96.8312L98.2189 18.4761H98.4006C99.6866 18.4761 100.173 18.3235 100.827 17.6984L100.537 19.0285C99.9991 19.0866 99.7738 19.1012 99.1344 19.1012C98.7493 19.1012 98.2916 19.1012 97.7612 19.0866L95.9447 19.043L95.0728 19.0285H94.9639C95.3344 18.2362 95.4797 16.6154 95.4797 12.9158C95.4797 10.6408 95.4507 10.43 95.16 9.83398H95.24L95.2472 9.84125Z" fill="black"/>
<path d="M102.484 9.88507L103.596 9.87054L104.86 9.81239C105.223 9.79785 105.55 9.79785 105.885 9.79785C106.953 9.79785 107.396 9.9941 107.745 10.6264C107.897 10.9172 107.977 11.2661 107.977 11.6222C107.977 12.3854 107.672 12.9814 106.974 13.5483C106.502 13.9336 106.313 14.0499 105.754 14.2388L107.723 17.0808L107.861 17.2916C108.377 18.0402 108.856 18.5926 109.401 19.0069L109.292 18.9924H108.755C108.529 18.9778 108.355 18.9778 108.217 18.9924H107.992C107.686 18.9924 107.607 18.9487 107.352 18.6071L106.756 17.8294L106.684 17.7204L104.991 15.2927C104.642 14.7912 104.286 14.515 103.966 14.515H103.886L103.857 14.6531C103.828 15.1256 103.792 16.2086 103.792 16.9281C103.792 18.3164 103.836 18.7307 103.988 19.036H102.157C102.491 18.4254 102.644 16.8046 102.644 13.89C102.644 11.7167 102.564 10.5465 102.368 9.87054H102.491L102.484 9.88507ZM103.872 14.1007H103.952C104.272 14.1443 104.504 14.1589 104.628 14.1589C105.805 14.1589 106.64 13.2867 106.64 12.0074C106.64 10.8154 106.044 10.2049 104.911 10.2049C104.686 10.2049 104.395 10.2194 104.039 10.263H103.959L103.879 14.1007H103.872Z" fill="black"/>
<path d="M112.133 13.2941V13.6938L112.177 18.1711C112.191 18.5709 112.249 18.7381 112.496 19.0433H110.462C110.694 18.7526 110.753 18.6 110.796 18.113C110.869 16.8628 110.905 15.4964 110.905 13.9991C110.905 10.7647 110.876 10.3358 110.571 9.8125C110.644 9.82704 110.68 9.82704 110.694 9.82704C110.862 9.84157 111.109 9.84157 111.457 9.84157C112.111 9.84157 112.148 9.84157 112.438 9.8125C112.191 10.4885 112.133 11.1862 112.133 13.2941Z" fill="black"/>
<path d="M120.852 11.644C120.3 10.6192 119.755 10.2849 118.622 10.2849C116.529 10.2849 115.366 11.615 115.366 14.0135C115.366 16.5502 116.645 18.062 118.803 18.062C119.937 18.062 121.005 17.6041 121.368 16.9645C121.244 18.142 119.777 19.1159 118.135 19.1159C115.657 19.1159 113.877 17.2189 113.877 14.5296C113.877 11.5205 115.722 9.67432 118.716 9.67432C118.839 9.67432 119.087 9.68885 119.435 9.70339C119.878 9.73246 120.264 9.747 120.75 9.747H120.845V11.644H120.852Z" fill="black"/>
<path d="M128.292 10.2046C129.055 13.1338 130.522 17.1096 131.547 19.0066L131.605 19.1011H130.021L128.524 15.0381H125.298L124.456 16.9061C124.456 16.9061 124.441 16.9351 124.426 16.9788C124.165 17.5166 123.969 18.2144 123.969 18.6432C123.969 18.7959 123.983 18.8758 124.049 19.043C123.634 19.0139 123.148 18.9994 122.632 18.9994C122.508 18.9994 122.421 18.9994 122.261 19.0139C123.22 17.8655 123.438 17.5021 124.812 14.6456C125.778 12.6323 126.555 10.6916 126.555 10.2919C126.555 10.1538 126.526 10.0665 126.432 9.89209H126.584L127.427 9.9357L128.161 9.90663L128.219 9.92116L128.292 10.1974V10.2046ZM125.589 14.4058H128.292L127.144 11.026L125.589 14.4058Z" fill="black"/>
<path d="M140.876 13.0466C140.876 13.1556 140.876 13.2719 140.891 13.3809V13.5481L140.753 19.0502H139.757L139.648 18.9121C139.082 18.1635 137.919 16.499 136.139 13.9333C135.463 12.9521 134.918 12.1889 134.49 11.6147L134.417 11.5202C134.25 12.7413 134.221 13.1556 134.221 15.1253C134.221 16.47 134.279 17.691 134.388 18.3525C134.417 18.5851 134.482 18.7522 134.635 19.0284H134.511L133.836 19.0139C133.778 19.0139 133.545 19.0284 133.087 19.043H132.949C133.465 18.4033 133.654 16.5063 133.654 12.1962C133.654 10.6407 133.581 10.2555 133.211 9.82666L134.678 9.8412H134.802C135.02 9.8412 135.18 9.93568 135.303 10.1465L135.332 10.2046L137.367 13.4754L137.519 13.6862L138.631 15.3361L139.895 17.0005L139.975 17.1096L139.99 16.9569L140.157 13.4463C140.186 12.8358 140.2 12.2398 140.2 11.6438C140.2 10.5099 140.128 10.2119 139.815 9.8412H141.436C141.101 10.3282 140.883 11.5783 140.883 13.0466" fill="black"/>
<path d="M78.7103 26.8423C79.4732 29.7715 80.9409 33.7473 81.9654 35.6443L82.0235 35.7388H80.4395L78.9428 31.6758H75.7168L74.874 33.5438C74.874 33.5438 74.8594 33.5728 74.8449 33.6165C74.5833 34.1543 74.3871 34.8521 74.3871 35.2809C74.3871 35.4336 74.4017 35.5135 74.4671 35.6807C74.0529 35.6516 73.5661 35.6371 73.0502 35.6371C72.9267 35.6371 72.8395 35.6371 72.6797 35.6516C73.6388 34.5032 73.8567 34.1398 75.23 31.2833C76.2036 29.27 76.9738 27.3293 76.9738 26.9295C76.9738 26.7914 76.9447 26.7042 76.8502 26.5298H77.0028L77.8457 26.5734L78.5795 26.5443L78.6376 26.5589L78.7103 26.8351V26.8423ZM76.0074 31.0435H78.7103L77.5623 27.6637L76.0074 31.0435Z" fill="black"/>
<path d="M91.302 29.6843C91.302 29.7933 91.302 29.9096 91.3165 30.0187V30.1858L91.1785 35.688H90.183L90.0741 35.5499C89.5073 34.8012 88.3448 33.1368 86.5647 30.571C85.889 29.5898 85.344 28.8266 84.9153 28.2524L84.8427 28.1579C84.6756 29.379 84.6465 29.7933 84.6465 31.7631C84.6465 33.1077 84.7046 34.3288 84.8136 34.9975C84.8427 35.2301 84.9081 35.3973 85.0607 35.6734H84.9371L84.2614 35.6589C84.2033 35.6589 83.9708 35.6734 83.513 35.688H83.375C83.8909 35.0484 84.0798 33.1513 84.0798 28.8412C84.0798 27.2857 84.0071 26.9005 83.6366 26.4717L85.1043 26.4862H85.2278C85.4457 26.4862 85.5983 26.5807 85.7291 26.7915L85.7582 26.8496L87.7926 30.1204L87.9452 30.3312L89.0568 31.9811L90.3211 33.6456L90.401 33.7546L90.4155 33.602L90.5827 30.0913C90.6117 29.4808 90.6263 28.8848 90.6263 28.2888C90.6263 27.1549 90.5536 26.8569 90.2412 26.4862H91.8614C91.5272 26.9732 91.3092 28.2234 91.3092 29.6916" fill="black"/>
<path d="M98.9238 27.2418H96.9693L96.8603 32.0243V34.6192C96.8603 35.157 96.9039 35.3242 97.1364 35.6876H95.1964C95.5452 35.1716 95.6687 33.6743 95.6687 29.8802C95.6687 28.4774 95.6687 27.6779 95.6832 27.4671V27.2345H93.7433C93.3146 27.2345 93.024 27.3435 92.7842 27.6052L93.0893 26.4858L100.355 26.5004C100.05 26.9583 99.5123 27.249 98.931 27.249" fill="black"/>
<path d="M108.333 30.5125C108.333 34.9389 108.347 35.2296 108.58 35.5858C108.594 35.6439 108.609 35.6439 108.652 35.6803H106.807C107.054 35.375 107.141 35.0843 107.141 34.5464V34.3211L107.156 31.0794H102.731L102.716 34.0594V34.2266C102.716 34.9462 102.789 35.3241 102.992 35.6948L102.869 35.6803H101.14C101.35 35.4986 101.387 35.3895 101.416 34.9753C101.51 33.5725 101.568 31.4646 101.568 29.8874C101.568 27.3798 101.539 26.9364 101.292 26.5076H102.135L102.898 26.4931L103.021 26.4785C102.869 26.8274 102.796 27.3798 102.774 28.4773L102.745 30.5415H107.141L107.127 27.6051C107.127 27.1908 107.047 26.8274 106.865 26.4931H106.96L107.737 26.5076H107.933C108.253 26.5076 108.485 26.5076 108.623 26.4931C108.623 26.4785 108.652 26.4931 108.696 26.4785C108.391 26.9219 108.333 27.547 108.333 30.5125" fill="black"/>
<path d="M110.352 26.5223L111.464 26.5077L112.728 26.4496C113.092 26.4351 113.419 26.4351 113.753 26.4351C114.821 26.4351 115.264 26.6313 115.613 27.2637C115.765 27.5544 115.845 27.9033 115.845 28.2594C115.845 29.0226 115.54 29.6186 114.85 30.1855C114.378 30.5708 114.189 30.6871 113.629 30.876L115.598 33.718L115.736 33.9288C116.252 34.6774 116.732 35.2298 117.277 35.6514L117.168 35.6368H116.63C116.405 35.6223 116.23 35.6223 116.092 35.6368H115.867C115.562 35.6368 115.482 35.5932 115.228 35.2516L114.632 34.4739L114.559 34.3649L112.866 31.9372C112.518 31.4357 112.162 31.1595 111.842 31.1595H111.762L111.733 31.2976C111.704 31.77 111.668 32.853 111.668 33.5726C111.668 34.9609 111.711 35.3752 111.864 35.6804H110.033C110.367 35.0699 110.52 33.449 110.52 30.5344C110.52 28.3612 110.44 27.191 110.243 26.515H110.367L110.352 26.5223ZM111.74 30.7379H111.82C112.14 30.7815 112.372 30.7961 112.496 30.7961C113.673 30.7961 114.508 29.9239 114.508 28.6446C114.508 27.4526 113.913 26.8421 112.779 26.8421C112.554 26.8421 112.263 26.8566 111.907 26.9002H111.827L111.747 30.7379H111.74Z" fill="black"/>
<path d="M124.165 35.2299C123.475 35.5642 122.712 35.7314 121.934 35.7314C119.413 35.7314 117.844 34.0379 117.844 31.2977C117.844 28.0414 119.449 26.2534 122.407 26.2534C124.557 26.2534 125.633 26.8349 126.258 28.3031C126.548 28.9936 126.701 29.7568 126.701 30.549C126.701 32.8822 125.865 34.4158 124.165 35.2371M122.24 26.7913C120.409 26.7913 119.275 28.3322 119.275 30.8107C119.275 33.4418 120.452 35.0118 122.421 35.0118C124.194 35.0118 125.262 33.5291 125.262 31.0287C125.262 28.3976 124.114 26.784 122.24 26.784" fill="black"/>
<path d="M128.328 26.4786C128.59 26.4786 128.909 26.4786 129.287 26.4641C129.716 26.4495 130.05 26.435 130.261 26.4205L131.285 26.3623H131.496C133.174 26.3623 134.112 27.22 134.112 28.7754C134.112 30.4835 133.029 31.69 131.503 31.69C130.893 31.69 130.661 31.6319 129.912 31.3702C131.809 31.2903 132.673 30.5126 132.673 28.8772C132.673 27.4744 132.121 26.8638 130.842 26.8638C130.552 26.8638 130.232 26.8784 129.927 26.9074L129.789 26.922C129.774 27.031 129.76 27.0891 129.76 27.1037C129.731 27.3653 129.701 29.117 129.651 32.3151V33.1728C129.651 34.9172 129.68 35.2225 129.941 35.6804H127.914C128.299 35.0989 128.466 33.5871 128.466 30.8687C128.466 30.1201 128.437 28.9717 128.372 27.3581C128.343 26.8202 128.328 26.733 128.161 26.4713H128.328V26.4786Z" fill="black"/>
<path d="M141.312 35.2299C140.622 35.5642 139.859 35.7314 139.082 35.7314C136.561 35.7314 134.991 34.0379 134.991 31.2977C134.991 28.0414 136.597 26.2534 139.554 26.2534C141.705 26.2534 142.78 26.8349 143.405 28.3031C143.696 28.9936 143.848 29.7568 143.848 30.549C143.848 32.8822 143.02 34.4158 141.312 35.2371M139.387 26.7913C137.556 26.7913 136.423 28.3322 136.423 30.8107C136.423 33.4418 137.6 35.0118 139.569 35.0118C141.342 35.0118 142.41 33.5291 142.41 31.0287C142.41 28.3976 141.262 26.784 139.387 26.784" fill="black"/>
<path d="M146.885 27.1693C146.762 28.2087 146.704 29.4879 146.704 31.007V31.5086C146.733 33.6019 146.747 34.7503 146.747 34.9465L146.762 35.0991H147.953C149.05 35.0991 149.755 34.8375 150.184 34.2705L149.85 35.6588H149.784L147.757 35.6733L145.221 35.6879H145.054C145.25 35.3681 145.287 35.2154 145.316 34.7866C145.41 33.3038 145.483 31.2905 145.483 29.8659C145.483 27.5909 145.425 26.9367 145.178 26.5806C145.163 26.5515 145.12 26.5079 145.083 26.457H147.161C146.965 26.6896 146.929 26.8205 146.885 27.1766" fill="black"/>
<path d="M157.5 35.2299C156.81 35.5642 156.047 35.7314 155.27 35.7314C152.749 35.7314 151.179 34.0379 151.179 31.2977C151.179 28.0414 152.785 26.2534 155.742 26.2534C157.893 26.2534 158.968 26.8349 159.593 28.3031C159.884 28.9936 160.036 29.7568 160.036 30.549C160.036 32.8822 159.201 34.4158 157.5 35.2371M155.575 26.7913C153.744 26.7913 152.611 28.3322 152.611 30.8107C152.611 33.4418 153.788 35.0118 155.757 35.0118C157.529 35.0118 158.598 33.5291 158.598 31.0287C158.598 28.3976 157.45 26.784 155.575 26.784" fill="black"/>
<path d="M168.588 28.1866C168.159 27.547 167.287 27.2054 166.052 27.2054C163.64 27.2054 162.434 28.4701 162.434 30.9486C162.434 33.667 163.792 35.1497 166.299 35.1497C166.771 35.1497 166.953 35.1352 167.367 35.0262C167.433 34.2921 167.476 33.587 167.476 32.8529C167.476 31.879 167.433 31.6319 167.186 31.1085C167.353 31.1231 167.382 31.1231 167.542 31.1231C168.072 31.1231 168.704 31.094 169.053 31.0504C168.762 31.7845 168.733 32.0243 168.733 33.4489C168.733 34.263 168.748 34.641 168.857 35.4477L166.016 35.7094C165.921 35.7239 165.834 35.7239 165.725 35.7239H165.682C164.701 35.7094 163.88 35.6004 163.255 35.3605C161.838 34.8227 160.937 33.2963 160.937 31.4356C160.937 29.1315 161.961 27.6342 164.025 26.9292C164.897 26.6385 165.856 26.4858 166.851 26.4858C167.309 26.4858 167.861 26.5149 168.501 26.5949H168.566V28.1866H168.588Z" fill="black"/>
<path d="M171.974 29.9313V30.331L172.017 34.8083C172.032 35.2081 172.09 35.3753 172.337 35.6805H170.303C170.535 35.3898 170.593 35.2372 170.637 34.7502C170.71 33.5 170.746 32.1336 170.746 30.6363C170.746 27.4091 170.717 26.973 170.412 26.4497C170.484 26.4642 170.521 26.4642 170.535 26.4642C170.702 26.4788 170.949 26.4788 171.298 26.4788C171.952 26.4788 171.988 26.4788 172.279 26.4497C172.032 27.1257 171.974 27.8234 171.974 29.9313" fill="black"/>
<path d="M180.686 28.2813C180.133 27.2564 179.589 26.9221 178.455 26.9221C176.363 26.9221 175.2 28.2522 175.2 30.6507C175.2 33.1874 176.479 34.6992 178.637 34.6992C179.777 34.6992 180.838 34.2413 181.202 33.6017C181.078 34.7792 179.603 35.7532 177.968 35.7532C175.491 35.7532 173.718 33.8561 173.718 31.1668C173.718 28.1577 175.563 26.3115 178.557 26.3115C178.68 26.3115 178.935 26.3261 179.276 26.3406C179.719 26.3697 180.104 26.3842 180.591 26.3842H180.686V28.2813V28.2813Z" fill="black"/>
<path d="M188.133 26.8423C188.896 29.7715 190.364 33.7473 191.388 35.6443L191.446 35.7388H189.87L188.373 31.6758H185.147L184.304 33.5438C184.304 33.5438 184.29 33.5728 184.275 33.6165C184.014 34.1543 183.817 34.8521 183.817 35.2809C183.817 35.4336 183.832 35.5135 183.905 35.6807C183.49 35.6516 183.004 35.6371 182.488 35.6371C182.364 35.6371 182.277 35.6371 182.117 35.6516C183.076 34.5032 183.294 34.1398 184.667 31.2833C185.641 29.27 186.411 27.3293 186.411 26.9295C186.411 26.7914 186.382 26.7042 186.288 26.5298H186.44L187.283 26.5734L188.017 26.5443L188.075 26.5589L188.148 26.8351L188.133 26.8423ZM185.43 31.0435H188.133L186.985 27.6637L185.43 31.0435V31.0435Z" fill="black"/>
<path d="M194.701 27.1693C194.578 28.2087 194.519 29.4879 194.519 31.007V31.5086C194.549 33.6019 194.563 34.7503 194.563 34.9465L194.578 35.0991H195.769C196.866 35.0991 197.571 34.8375 198 34.2705L197.666 35.6588H197.6L195.573 35.6733L193.037 35.6879H192.87C193.066 35.3681 193.103 35.2154 193.132 34.7866C193.226 33.3038 193.299 31.2905 193.299 29.8659C193.299 27.5909 193.241 26.9367 192.994 26.5806C192.979 26.5515 192.935 26.5079 192.899 26.457H194.977C194.781 26.6896 194.737 26.8205 194.701 27.1766" fill="black"/>
<path d="M78.7103 43.4795C79.4732 46.4087 80.9409 50.3845 81.9654 52.2815L82.0235 52.376H80.4395L78.9428 48.313H75.7168L74.874 50.181C74.874 50.181 74.8594 50.2101 74.8449 50.2537C74.5833 50.7915 74.3871 51.4893 74.3871 51.9181C74.3871 52.0708 74.4017 52.1507 74.4671 52.3179C74.0529 52.2888 73.5661 52.2743 73.0502 52.2743C72.9267 52.2743 72.8395 52.2743 72.6797 52.2888C73.6388 51.1404 73.8567 50.777 75.23 47.9205C76.2036 45.9072 76.9738 43.9665 76.9738 43.5668C76.9738 43.4287 76.9447 43.3414 76.8502 43.167H77.0028L77.8457 43.2106L78.5795 43.1815L78.6376 43.1961L78.7103 43.4723V43.4795ZM76.0074 47.6807H78.7103L77.5623 44.3009L76.0074 47.6807Z" fill="black"/>
<path d="M88.8608 44.4895C88.403 43.8281 87.6256 43.4792 86.6011 43.4792C85.5766 43.4792 84.9808 44.0462 84.9808 45.0056C84.9808 45.8124 85.4095 46.3212 86.5866 46.9608C87.9889 47.7094 88.374 48.0002 88.7663 48.5162C88.9988 48.836 89.1296 49.2503 89.1296 49.7082C89.1296 51.191 87.6619 52.4702 85.9981 52.4702C85.5548 52.4702 85.0535 52.4121 84.5013 52.3321C83.9636 52.2376 83.5567 52.1213 83.3242 51.9978C83.3242 51.9687 83.3097 51.9832 83.2661 51.9542V50.4133C83.8474 51.3581 84.8283 51.9105 85.8963 51.9105C87.0153 51.9105 87.7491 51.2055 87.7491 50.1371C87.7491 49.3593 87.2768 48.6979 86.4485 48.24L85.1334 47.5495C84.1889 47.048 83.6512 46.2339 83.6512 45.3181C83.6512 43.9299 84.7701 42.9995 86.4631 42.9995C86.6156 42.9995 86.8481 43.014 87.364 43.0431L88.0688 43.0867C88.3304 43.1013 88.5411 43.1013 88.6646 43.1013H88.8608V44.5041V44.4895Z" fill="black"/>
<path d="M95.9155 44.4895C95.4577 43.8281 94.6803 43.4792 93.6558 43.4792C92.6313 43.4792 92.0355 44.0462 92.0355 45.0056C92.0355 45.8124 92.4642 46.3212 93.6413 46.9608C95.0436 47.7094 95.4287 48.0002 95.821 48.5162C96.0535 48.836 96.1843 49.2503 96.1843 49.7082C96.1843 51.191 94.7166 52.4702 93.0527 52.4702C92.6095 52.4702 92.1082 52.4121 91.556 52.3321C91.0183 52.2376 90.6114 52.1213 90.3789 51.9978C90.3789 51.9687 90.3644 51.9832 90.3208 51.9542V50.4133C90.9021 51.3581 91.883 51.9105 92.951 51.9105C94.07 51.9105 94.8038 51.2055 94.8038 50.1371C94.8038 49.3593 94.3315 48.6979 93.5032 48.24L92.1881 47.5495C91.2436 47.048 90.7059 46.2339 90.7059 45.3181C90.7059 43.9299 91.8248 42.9995 93.5178 42.9995C93.6703 42.9995 93.9028 43.014 94.4187 43.0431L95.1235 43.0867C95.3851 43.1013 95.5958 43.1013 95.7193 43.1013H95.9155V44.5041V44.4895Z" fill="black"/>
<path d="M103.566 51.8671C102.876 52.2014 102.113 52.3686 101.336 52.3686C98.8145 52.3686 97.2451 50.6751 97.2451 47.9349C97.2451 44.6786 98.8509 42.8906 101.808 42.8906C103.959 42.8906 105.034 43.4721 105.659 44.9403C105.95 45.6308 106.102 46.394 106.102 47.1862C106.102 49.5121 105.274 51.053 103.566 51.8743M101.641 43.4285C99.8099 43.4285 98.6765 44.9694 98.6765 47.4479C98.6765 50.079 99.8535 51.649 101.823 51.649C103.595 51.649 104.663 50.1663 104.663 47.6732C104.663 45.0421 103.515 43.4285 101.641 43.4285Z" fill="black"/>
<path d="M114.451 44.9185C113.899 43.8936 113.354 43.5593 112.22 43.5593C110.128 43.5593 108.965 44.8894 108.965 47.288C108.965 49.8246 110.244 51.3364 112.402 51.3364C113.543 51.3364 114.603 50.8785 114.967 50.2389C114.843 51.4164 113.368 52.3904 111.733 52.3904C109.256 52.3904 107.483 50.4933 107.483 47.804C107.483 44.7949 109.328 42.9487 112.322 42.9487C112.445 42.9487 112.7 42.9633 113.041 42.9778C113.484 43.0069 113.87 43.0214 114.356 43.0214H114.451V44.9185V44.9185Z" fill="black"/>
<path d="M117.735 46.5684V46.9682L117.778 51.4455C117.793 51.8453 117.844 52.0124 118.098 52.3177H116.063C116.303 52.027 116.354 51.8743 116.398 51.3873C116.47 50.1372 116.507 48.7635 116.507 47.2662C116.507 44.039 116.478 43.6029 116.172 43.0796C116.245 43.0941 116.281 43.0941 116.296 43.0941C116.463 43.1087 116.71 43.1087 117.059 43.1087C117.713 43.1087 117.749 43.1087 118.04 43.0796C117.793 43.7555 117.735 44.4533 117.735 46.5611" fill="black"/>
<path d="M125.444 43.4795C126.207 46.4087 127.674 50.3845 128.699 52.2815L128.757 52.376H127.173L125.676 48.313H122.45L121.607 50.181C121.607 50.181 121.593 50.2101 121.578 50.2537C121.317 50.7915 121.121 51.4893 121.121 51.9181C121.121 52.0708 121.135 52.1507 121.208 52.3179C120.794 52.2888 120.307 52.2743 119.791 52.2743C119.667 52.2743 119.58 52.2743 119.42 52.2888C120.379 51.1404 120.597 50.777 121.971 47.9205C122.937 45.9072 123.714 43.9665 123.714 43.5668C123.714 43.4287 123.685 43.3414 123.591 43.167H123.744L124.586 43.2106L125.32 43.1815L125.378 43.1961L125.451 43.4723L125.444 43.4795ZM122.741 47.6807H125.444L124.296 44.3009L122.741 47.6807Z" fill="black"/>
<path d="M134.802 43.8793H132.848L132.739 48.6619V51.2567C132.739 51.7946 132.782 51.9618 133.015 52.3252H131.075C131.424 51.8091 131.547 50.3118 131.547 46.5178C131.547 45.115 131.547 44.3154 131.562 44.1047V43.8648H129.622C129.193 43.8648 128.902 43.9738 128.663 44.2355L128.968 43.1089L136.234 43.1234C135.928 43.5813 135.391 43.8721 134.809 43.8721" fill="black"/>
<path d="M138.849 46.5684V46.9682L138.893 51.4455C138.907 51.8453 138.966 52.0124 139.213 52.3177H137.178C137.411 52.027 137.469 51.8743 137.512 51.3873C137.585 50.1372 137.621 48.7635 137.621 47.2662C137.621 44.039 137.592 43.6029 137.287 43.0796C137.36 43.0941 137.396 43.0941 137.411 43.0941C137.578 43.1087 137.825 43.1087 138.174 43.1087C138.828 43.1087 138.864 43.1087 139.155 43.0796C138.907 43.7555 138.849 44.4533 138.849 46.5611" fill="black"/>
<path d="M146.834 51.8671C146.144 52.2014 145.381 52.3686 144.603 52.3686C142.082 52.3686 140.513 50.6751 140.513 47.9349C140.513 44.6786 142.118 42.8906 145.076 42.8906C147.226 42.8906 148.302 43.4721 148.926 44.9403C149.217 45.6308 149.37 46.394 149.37 47.1862C149.37 49.5121 148.541 51.053 146.834 51.8743M144.908 43.4285C143.078 43.4285 141.944 44.9694 141.944 47.4479C141.944 50.079 143.121 51.649 145.09 51.649C146.863 51.649 147.931 50.1663 147.931 47.6732C147.931 45.0421 146.783 43.4285 144.908 43.4285Z" fill="black"/>
<path d="M158.423 46.3215C158.423 46.4305 158.423 46.5468 158.438 46.6559V46.823L158.3 52.3252H157.304L157.195 52.1871C156.628 51.4384 155.466 49.774 153.686 47.2083C153.01 46.227 152.465 45.4638 152.036 44.8896L151.964 44.7952C151.797 46.0162 151.768 46.4305 151.768 48.4003C151.768 49.7449 151.826 50.966 151.935 51.6347C151.964 51.8673 152.029 52.0345 152.182 52.3107H152.058L151.383 52.2961C151.324 52.2961 151.092 52.3107 150.634 52.3252H150.496C151.012 51.6856 151.201 49.7885 151.201 45.4784C151.201 43.9229 151.128 43.5377 150.758 43.1089L152.225 43.1234H152.349C152.567 43.1234 152.719 43.2179 152.85 43.4287L152.879 43.4868L154.914 46.7576L155.066 46.9684L156.178 48.6183L157.442 50.2828L157.522 50.3918L157.537 50.2392L157.704 46.7285C157.733 46.118 157.747 45.522 157.747 44.926C157.747 43.7921 157.675 43.4941 157.355 43.1234H158.975C158.641 43.6104 158.423 44.8533 158.423 46.3288" fill="black"/>
</svg>
