<svg xmlns="http://www.w3.org/2000/svg" width="1200" height="300" viewBox="0 0 1200 300"><rect width="100%" height="100%" fill="#000000"/><path fill="#FFF" d="M290.395 187.93h18.33v13.04h-56.4v-13.04h20.66V128.5q0-3.53.21-7.27l-14.66 12.27q-1.27.99-2.5 1.24-1.24.24-2.33.03t-1.94-.74-1.27-1.16l-5.5-7.55 31.09-26.43h14.31zm70.15-3.18h26.16q2.82 0 4.47 1.59 1.66 1.59 1.66 4.2v10.43h-69.93v-5.78q0-1.76.74-3.7t2.36-3.49l30.95-31.02q3.87-3.95 6.94-7.55 3.07-3.59 5.11-7.12 2.05-3.52 3.14-7.15t1.09-7.65q0-3.67-1.06-6.45-1.05-2.79-2.99-4.69t-4.65-2.86q-2.72-.95-6.1-.95-3.1 0-5.75.88-2.64.89-4.69 2.47-2.04 1.59-3.45 3.7-1.41 2.12-2.12 4.66-1.19 3.24-3.1 4.3-1.9 1.05-5.5.49l-9.16-1.62q1.06-7.33 4.09-12.87 3.03-5.53 7.58-9.23 4.54-3.7 10.43-5.57t12.65-1.87q7.05 0 12.91 2.08 5.85 2.08 10.01 5.89 4.16 3.8 6.48 9.16 2.33 5.36 2.33 11.91 0 5.64-1.66 10.44-1.65 4.79-4.44 9.16-2.78 4.37-6.52 8.46t-7.83 8.32l-22.98 23.48q3.31-.99 6.59-1.52t6.24-.53M477.575 150q0 13.32-2.85 23.16-2.86 9.83-7.9 16.25-5.04 6.41-11.91 9.55-6.88 3.14-14.84 3.14-7.97 0-14.77-3.14-6.81-3.14-11.81-9.55-5.01-6.42-7.83-16.25-2.82-9.84-2.82-23.16 0-13.4 2.82-23.2t7.83-16.21q5-6.42 11.81-9.55 6.8-3.14 14.77-3.14 7.96 0 14.84 3.14 6.87 3.13 11.91 9.55 5.04 6.41 7.9 16.21 2.85 9.8 2.85 23.2m-17.98 0q0-11.07-1.62-18.33t-4.33-11.56q-2.72-4.3-6.24-6.03-3.53-1.73-7.33-1.73-3.74 0-7.23 1.73t-6.17 6.03-4.26 11.56q-1.59 7.26-1.59 18.33t1.59 18.33q1.58 7.26 4.26 11.56t6.17 6.03 7.23 1.73q3.8 0 7.33-1.73 3.52-1.73 6.24-6.03 2.71-4.3 4.33-11.56t1.62-18.33m99.76 0q0 13.32-2.85 23.16-2.86 9.83-7.9 16.25-5.04 6.41-11.91 9.55-6.88 3.14-14.84 3.14-7.97 0-14.77-3.14-6.81-3.14-11.81-9.55-5.01-6.42-7.83-16.25-2.82-9.84-2.82-23.16 0-13.4 2.82-23.2t7.83-16.21q5-6.42 11.81-9.55 6.8-3.14 14.77-3.14 7.96 0 14.84 3.14 6.87 3.13 11.91 9.55 5.04 6.41 7.9 16.21 2.85 9.8 2.85 23.2m-17.98 0q0-11.07-1.62-18.33t-4.33-11.56q-2.72-4.3-6.24-6.03-3.53-1.73-7.33-1.73-3.74 0-7.23 1.73t-6.17 6.03-4.26 11.56q-1.59 7.26-1.59 18.33t1.59 18.33q1.58 7.26 4.26 11.56t6.17 6.03 7.23 1.73q3.8 0 7.33-1.73 3.52-1.73 6.24-6.03 2.71-4.3 4.33-11.56t1.62-18.33m129.94 27.63-9.24 9.1-23.9-23.9-24.11 24.04-9.24-9.09 24.12-24.19-22.99-22.98 9.17-9.16 22.98 22.98 22.84-22.84 9.31 9.16-22.91 22.91zm58.65-48.57-9.16-1.62q1.05-7.33 4.09-12.87 3.03-5.53 7.57-9.23 4.55-3.7 10.44-5.57t12.65-1.87q7.05 0 12.73 2.01 5.67 2.01 9.69 5.57t6.17 8.35q2.15 4.8 2.15 10.37 0 4.86-1.09 8.56t-3.14 6.45q-2.04 2.75-5.07 4.65-3.04 1.91-6.84 3.18 9.16 2.89 13.67 8.81 4.52 5.92 4.52 14.88 0 7.61-2.82 13.46t-7.62 9.84q-4.79 3.98-11.1 6.02-6.31 2.05-13.36 2.05-7.69 0-13.4-1.76-5.71-1.77-9.94-5.22-4.23-3.46-7.19-8.46-2.96-5.01-5.07-11.56l7.68-3.18q3.03-1.27 5.68-.67 2.64.6 3.84 2.86 1.27 2.47 2.78 4.86 1.52 2.4 3.63 4.27 2.12 1.87 4.97 3.03 2.86 1.16 6.81 1.16 4.44 0 7.75-1.44 3.32-1.45 5.54-3.77 2.22-2.33 3.31-5.18 1.09-2.86 1.09-5.75 0-3.67-.77-6.66-.78-3-3.25-5.11-2.46-2.12-7.08-3.32t-12.37-1.2v-12.4q6.41-.07 10.64-1.2t6.73-3.14q2.51-2.01 3.49-4.83.99-2.82.99-6.2 0-7.19-4.02-10.93t-10.71-3.74q-3.11 0-5.71.88-2.61.89-4.69 2.47-2.08 1.59-3.49 3.7-1.41 2.12-2.12 4.66-1.2 3.24-3.13 4.3-1.94 1.05-5.47.49M873.225 150q0 13.32-2.86 23.16-2.85 9.83-7.89 16.25-5.04 6.41-11.92 9.55-6.87 3.14-14.84 3.14-7.96 0-14.77-3.14-6.8-3.14-11.81-9.55-5-6.42-7.82-16.25-2.82-9.84-2.82-23.16 0-13.4 2.82-23.2t7.82-16.21q5.01-6.42 11.81-9.55 6.81-3.14 14.77-3.14 7.97 0 14.84 3.14 6.88 3.13 11.92 9.55 5.04 6.41 7.89 16.21 2.86 9.8 2.86 23.2m-17.98 0q0-11.07-1.62-18.33t-4.34-11.56q-2.71-4.3-6.24-6.03-3.52-1.73-7.33-1.73-3.73 0-7.22 1.73t-6.17 6.03-4.27 11.56q-1.58 7.26-1.58 18.33t1.58 18.33q1.59 7.26 4.27 11.56t6.17 6.03 7.22 1.73q3.81 0 7.33-1.73 3.53-1.73 6.24-6.03 2.72-4.3 4.34-11.56t1.62-18.33m99.76 0q0 13.32-2.86 23.16-2.85 9.83-7.89 16.25-5.04 6.41-11.92 9.55-6.87 3.14-14.84 3.14-7.96 0-14.77-3.14-6.8-3.14-11.81-9.55-5-6.42-7.82-16.25-2.82-9.84-2.82-23.16 0-13.4 2.82-23.2t7.82-16.21q5.01-6.42 11.81-9.55 6.81-3.14 14.77-3.14 7.97 0 14.84 3.14 6.88 3.13 11.92 9.55 5.04 6.41 7.89 16.21 2.86 9.8 2.86 23.2m-17.98 0q0-11.07-1.62-18.33t-4.34-11.56q-2.71-4.3-6.24-6.03-3.52-1.73-7.33-1.73-3.73 0-7.22 1.73t-6.17 6.03-4.27 11.56q-1.58 7.26-1.58 18.33t1.58 18.33q1.59 7.26 4.27 11.56t6.17 6.03 7.22 1.73q3.81 0 7.33-1.73 3.53-1.73 6.24-6.03 2.72-4.3 4.34-11.56t1.62-18.33"/></svg>